<svg xmlns="http://www.w3.org/2000/svg" xmlns:xlink="http://www.w3.org/1999/xlink" width="500" zoomAndPan="magnify" viewBox="0 0 375 374.999991" height="500" preserveAspectRatio="xMidYMid meet" version="1.0"><defs><clipPath id="610f2290c4"><path d="M 0 6.796875 L 375 6.796875 L 375 367 L 0 367 Z M 0 6.796875 " clip-rule="nonzero"/></clipPath></defs><path fill="#738b95" d="M 154.5 264.179688 C 150.476562 270.355469 148.144531 277.710938 148.144531 285.628906 C 135.027344 292.191406 115.351562 292.191406 108.789062 285.628906 C 100.464844 277.300781 102.230469 272.507812 82.554688 259.386719 C 78.171875 256.464844 74.382812 255.644531 71.253906 255.234375 C 69.386719 255.492188 67.847656 256.851562 67.335938 258.671875 C 66.796875 260.464844 67.386719 262.4375 68.820312 263.667969 C 73.945312 267.640625 80.785156 273.738281 82.554688 279.070312 C 89.113281 298.753906 102.230469 311.875 121.910156 311.875 C 133.773438 311.875 142.226562 310.15625 148.144531 307.953125 L 148.144531 337.269531 C 148.144531 346.191406 143.609375 354.519531 136.101562 359.335938 C 128.570312 364.179688 119.140625 364.847656 110.996094 361.132812 C 47.835938 331.839844 3.84375 267.894531 3.84375 193.78125 C 3.84375 92.394531 86.140625 10.078125 187.5 10.078125 C 288.859375 10.078125 371.15625 92.394531 371.15625 193.78125 C 371.15625 267.894531 327.164062 331.839844 263.878906 360.875 C 255.832031 364.539062 246.480469 363.875 239.074219 359.105469 C 231.644531 354.3125 227.136719 346.085938 227.136719 337.269531 C 226.855469 313.078125 226.855469 285.628906 226.855469 285.628906 C 226.855469 277.96875 224.625 270.511719 220.5 264.179688 C 269.71875 258.15625 292.445312 235.808594 292.445312 183.9375 C 292.445312 166.074219 286.398438 151.238281 276.636719 139.320312 C 281.683594 125.632812 282.964844 109.335938 280.738281 95.417969 C 280.402344 93.652344 279.351562 92.085938 277.839844 91.113281 C 276.328125 90.164062 274.484375 89.859375 272.742188 90.292969 C 255.628906 94.523438 242.203125 101.03125 232.234375 109.746094 C 217.527344 104.492188 201.875 101.929688 187.5 101.929688 C 173.125 101.929688 157.472656 104.492188 142.765625 109.746094 C 132.796875 101.03125 119.371094 94.523438 102.257812 90.292969 C 100.515625 89.859375 98.671875 90.164062 97.160156 91.113281 C 95.648438 92.085938 94.597656 93.652344 94.261719 95.417969 C 92.035156 109.335938 93.316406 125.632812 98.363281 139.320312 C 88.601562 151.238281 82.554688 166.074219 82.554688 183.9375 C 82.554688 235.808594 105.28125 258.15625 154.5 264.179688 " fill-opacity="1" fill-rule="evenodd"/><path fill="#617881" d="M 128.03125 362.796875 C 122.421875 364.128906 116.402344 363.617188 110.996094 361.132812 C 47.835938 331.839844 3.84375 267.894531 3.84375 193.78125 C 3.84375 92.394531 86.140625 10.078125 187.5 10.078125 C 189.550781 10.078125 191.597656 10.101562 193.625 10.179688 C 95.109375 13.433594 16.117188 94.445312 16.117188 193.78125 C 16.117188 267.894531 60.109375 331.839844 123.265625 361.132812 C 124.828125 361.847656 126.417969 362.386719 128.03125 362.796875 Z M 278.867188 91.960938 C 280.863281 91.371094 282.914062 90.804688 285.015625 90.292969 C 286.757812 89.859375 288.601562 90.164062 290.113281 91.113281 C 291.625 92.085938 292.675781 93.652344 293.007812 95.417969 C 295.238281 109.335938 293.957031 125.632812 288.910156 139.320312 C 298.644531 151.238281 304.71875 166.074219 304.71875 183.9375 C 304.71875 235.808594 281.992188 258.15625 232.773438 264.179688 C 236.871094 270.511719 239.128906 277.96875 239.128906 285.628906 C 239.128906 285.628906 239.128906 313.078125 239.410156 337.269531 C 239.410156 346.085938 243.917969 354.3125 251.324219 359.105469 C 253.78125 360.667969 256.472656 361.796875 259.238281 362.464844 C 252.398438 364.15625 245.097656 362.976562 239.074219 359.105469 C 231.644531 354.3125 227.136719 346.085938 227.136719 337.269531 C 226.855469 313.078125 226.855469 285.628906 226.855469 285.628906 C 226.855469 277.96875 224.625 270.511719 220.5 264.179688 C 269.71875 258.15625 292.445312 235.808594 292.445312 183.9375 C 292.445312 166.074219 286.398438 151.238281 276.636719 139.320312 C 281.683594 125.632812 282.964844 109.335938 280.738281 95.417969 C 280.480469 94.085938 279.839844 92.882812 278.867188 91.960938 Z M 148.144531 310.953125 C 144.121094 311.515625 139.484375 311.875 134.183594 311.875 C 132.59375 311.875 131.03125 311.796875 129.519531 311.617188 C 137.511719 311.054688 143.585938 309.644531 148.144531 307.953125 Z M 79.914062 257.824219 C 80.632812 256.441406 81.964844 255.464844 83.527344 255.234375 C 86.652344 255.644531 90.445312 256.464844 94.828125 259.386719 C 114.503906 272.507812 112.738281 277.300781 121.0625 285.628906 C 123.421875 287.988281 127.496094 289.5 132.335938 290.167969 C 122.550781 291.347656 112.992188 289.832031 108.789062 285.628906 C 100.464844 277.300781 102.230469 272.507812 82.554688 259.386719 C 81.65625 258.773438 80.785156 258.285156 79.914062 257.824219 Z M 193.625 102.082031 C 195.699219 101.980469 197.75 101.929688 199.773438 101.929688 C 211.300781 101.929688 223.625 103.59375 235.667969 106.953125 C 234.488281 107.847656 233.335938 108.769531 232.234375 109.746094 C 219.578125 105.234375 206.253906 102.699219 193.625 102.082031 Z M 108.382812 91.960938 C 108.714844 91.652344 109.046875 91.371094 109.429688 91.113281 C 110.941406 90.164062 112.789062 89.859375 114.53125 90.292969 C 129.75 94.035156 142.074219 99.621094 151.605469 106.953125 C 148.632812 107.773438 145.660156 108.695312 142.765625 109.746094 C 134.027344 102.109375 122.601562 96.136719 108.382812 91.960938 " fill-opacity="1" fill-rule="evenodd"/><g clip-path="url(#610f2290c4)"><path fill="#000000" d="M 70.921875 261.15625 C 76.507812 265.488281 83.734375 272.253906 85.65625 278.042969 C 91.726562 296.242188 103.691406 308.59375 121.910156 308.59375 C 133.257812 308.59375 141.332031 306.980469 147.019531 304.878906 C 148.015625 304.519531 149.144531 304.648438 150.015625 305.261719 C 150.886719 305.878906 151.425781 306.875 151.425781 307.953125 C 151.425781 307.953125 151.425781 337.269531 151.425781 337.246094 C 151.425781 347.316406 146.328125 356.671875 137.871094 362.105469 C 129.417969 367.539062 118.785156 368.308594 109.636719 364.105469 C 45.351562 334.296875 0.566406 269.230469 0.566406 193.78125 C 0.566406 90.574219 84.324219 6.796875 187.5 6.796875 C 290.675781 6.796875 374.433594 90.574219 374.433594 193.78125 C 374.433594 269.230469 329.648438 334.296875 265.234375 363.847656 C 256.191406 368 245.660156 367.230469 237.28125 361.847656 C 228.929688 356.46875 223.855469 347.214844 223.855469 337.296875 C 223.574219 313.105469 223.574219 285.628906 223.574219 285.628906 C 223.574219 278.609375 221.523438 271.765625 217.757812 265.972656 C 217.144531 265.027344 217.042969 263.820312 217.527344 262.796875 C 218.015625 261.769531 218.964844 261.054688 220.089844 260.925781 C 243.765625 258.03125 261.136719 251.367188 272.511719 239.039062 C 283.886719 226.710938 289.164062 208.847656 289.164062 183.9375 C 289.164062 166.894531 283.402344 152.75 274.101562 141.394531 C 273.359375 140.5 273.152344 139.269531 273.5625 138.167969 C 278.429688 125.046875 279.636719 109.386719 277.507812 95.984375 C 277.328125 95.136719 276.816406 94.367188 276.074219 93.882812 C 275.332031 93.417969 274.40625 93.265625 273.535156 93.472656 C 257.011719 97.570312 243.996094 103.800781 234.414062 112.207031 C 233.515625 113 232.261719 113.230469 231.132812 112.820312 C 216.785156 107.71875 201.515625 105.207031 187.5 105.207031 C 173.484375 105.207031 158.214844 107.71875 143.867188 112.820312 C 142.738281 113.230469 141.484375 113 140.585938 112.207031 C 131.003906 103.800781 117.988281 97.570312 101.464844 93.472656 C 100.59375 93.265625 99.667969 93.417969 98.925781 93.882812 C 98.183594 94.367188 97.671875 95.136719 97.492188 95.984375 C 95.363281 109.386719 96.570312 125.046875 101.4375 138.167969 C 101.847656 139.269531 101.640625 140.5 100.898438 141.394531 C 91.597656 152.75 85.835938 166.894531 85.835938 183.9375 C 85.835938 208.847656 91.113281 226.710938 102.460938 239.011719 C 113.863281 251.367188 131.210938 258.03125 154.882812 260.925781 C 156.035156 261.054688 156.984375 261.769531 157.472656 262.796875 C 157.957031 263.820312 157.855469 265.027344 157.242188 265.972656 C 153.578125 271.613281 151.425781 278.378906 151.425781 285.628906 C 151.425781 286.859375 150.734375 288.015625 149.605469 288.550781 C 141.203125 292.78125 130.289062 294.472656 121.398438 293.625 C 114.941406 293.011719 109.507812 290.988281 106.460938 287.964844 C 98.285156 279.761719 100.078125 275.019531 80.734375 262.105469 C 77.148438 259.722656 74.023438 258.953125 71.410156 258.566406 C 70.972656 258.746094 70.613281 259.105469 70.488281 259.566406 C 70.308594 260.15625 70.488281 260.773438 70.921875 261.15625 Z M 225.753906 266.769531 C 228.597656 272.585938 230.132812 279.019531 230.132812 285.628906 C 230.132812 285.628906 230.132812 313.078125 230.414062 337.269531 C 230.414062 344.984375 234.335938 352.160156 240.84375 356.339844 C 247.324219 360.515625 255.5 361.078125 262.519531 357.875 C 324.652344 329.378906 367.875 266.589844 367.875 193.78125 C 367.875 94.1875 287.066406 13.359375 187.5 13.359375 C 87.933594 13.359375 7.125 94.1875 7.125 193.78125 C 7.125 266.589844 50.347656 329.378906 112.351562 358.160156 C 119.476562 361.414062 127.75 360.796875 134.308594 356.59375 C 140.894531 352.367188 144.867188 345.089844 144.867188 337.269531 L 144.867188 312.464844 C 139.101562 314.027344 131.59375 315.15625 121.910156 315.15625 C 100.769531 315.15625 86.5 301.265625 79.453125 280.09375 C 77.839844 275.25 71.460938 269.871094 66.796875 266.257812 C 66.773438 266.230469 66.71875 266.179688 66.695312 266.152344 C 64.261719 264.078125 63.285156 260.796875 64.183594 257.746094 C 65.054688 254.699219 67.644531 252.441406 70.792969 251.980469 C 71.101562 251.929688 71.382812 251.929688 71.691406 251.980469 C 75.199219 252.441406 79.429688 253.363281 84.375 256.671875 C 104.382812 269.996094 102.640625 274.839844 111.121094 283.296875 C 113.300781 285.503906 117.347656 286.65625 122.011719 287.089844 C 129.183594 287.757812 137.84375 286.578125 144.917969 283.503906 C 145.222656 277.53125 146.734375 271.867188 149.246094 266.769531 C 126.1875 263.308594 109.148438 255.929688 97.671875 243.472656 C 85.347656 230.144531 79.273438 210.898438 79.273438 183.9375 C 79.273438 165.972656 85.140625 150.929688 94.671875 138.703125 C 89.933594 124.890625 88.804688 108.746094 91.035156 94.878906 C 91.035156 94.855469 91.035156 94.828125 91.035156 94.804688 C 91.546875 92.136719 93.109375 89.804688 95.390625 88.371094 C 97.671875 86.910156 100.4375 86.449219 103.050781 87.089844 C 119.910156 91.265625 133.335938 97.648438 143.457031 106.027344 C 158.007812 101.082031 173.355469 98.648438 187.5 98.648438 C 201.644531 98.648438 216.992188 101.082031 231.542969 106.027344 C 241.664062 97.648438 255.089844 91.265625 271.949219 87.089844 C 274.5625 86.449219 277.328125 86.910156 279.609375 88.371094 C 281.890625 89.804688 283.453125 92.136719 283.964844 94.804688 L 283.964844 94.878906 C 286.195312 108.746094 285.066406 124.890625 280.328125 138.703125 C 289.859375 150.929688 295.726562 165.972656 295.726562 183.9375 C 295.726562 210.898438 289.652344 230.144531 277.328125 243.472656 C 265.851562 255.929688 248.8125 263.308594 225.753906 266.769531 " fill-opacity="1" fill-rule="evenodd"/></g></svg>